<?xml version="1.0" encoding="utf-8"?>
<!-- Generator: Adobe Illustrator 21.0.0, SVG Export Plug-In . SVG Version: 6.00 Build 0)  -->
<svg version="1.1" id="Layer_1" xmlns="http://www.w3.org/2000/svg" xmlns:xlink="http://www.w3.org/1999/xlink" x="0px" y="0px"
	 viewBox="0 0 510 405" style="enable-background:new 0 0 510 405;" xml:space="preserve">
<style type="text/css">
	.st0{opacity:0.51;fill:#A1FF2A;enable-background:new    ;}
	.st1{fill:#DDFF3F;}
</style>
<circle class="st0" cx="259.8" cy="206.5" r="164.9"/>
<circle class="st0" cx="255.5" cy="239.2" r="137.4"/>
<circle class="st1" cx="472.2" cy="152.6" r="24.3"/>
<circle class="st1" cx="312.6" cy="245.6" r="24.3"/>
<circle class="st1" cx="251.3" cy="182.2" r="24.3"/>
<circle class="st1" cx="40.9" cy="306.9" r="24.3"/>
<g>
	<path d="M437.9,206.9c0,98.5-80.1,178.6-178.6,178.6c-69.7,0-130.1-40-159.6-98.3l17.9-11.5c8.2,16.8,19.3,31.9,32.7,44.8v-65.9
		l21.2-13.7v96.8c25,16.9,55.2,26.8,87.7,26.8c32.9,0,63.5-10.2,88.8-27.5v-87.5c0.2-1,0.3-2,0.4-3l20.8-13.4v86.6
		c29.4-28.6,47.6-68.6,47.6-112.7c0-1.5,0-3.1-0.1-4.6l20.3-13.1C437.6,195.1,437.9,201,437.9,206.9z"/>
</g>
<g>
	<path d="M428.8,159.3l-16.5,10.6c-7.1-29.2-22.3-55.2-43.1-75.5v103.4L348,211.5V77c-25.3-17.4-55.9-27.5-88.8-27.5
		c-32.4,0-62.6,9.9-87.7,26.8v129.4l-21.2,13.6v-126c-29.8,28.7-48.5,69-48.5,113.6c0,14,1.8,27.5,5.2,40.4l-18.6,12
		c-5.1-16.5-7.8-34.1-7.8-52.3c0-98.5,80.1-178.6,178.6-178.6c77.9,0,144.3,50,168.7,119.7c-0.1,0.7-0.1,1.5-0.1,2.3
		C427.8,153.5,428.2,156.4,428.8,159.3z"/>
</g>
<g>
	<path d="M469.1,114.5c-19.8,0-35.9,16.1-35.9,35.9c0,3.9,0.6,7.6,1.8,11.2l-2.5,1.6l-18.9,12.2l-44.4,28.7L348,217.8l-11.4,7.4
		c-5.3-6.3-13.2-10.2-21.9-10.2c-5.4,0-10.6,1.5-15,4.2L280,196.4c3.3-5.5,5.1-11.9,5.1-18.5c0-19.8-16.1-35.9-35.9-35.9
		s-35.9,16.1-35.9,35.9c0,2.3,0.2,4.5,0.6,6.7L171.5,212l-21.1,13.7l-41.9,27l-18.4,11.9l-24.7,16c-6.6-6.1-15.2-9.6-24.4-9.6
		c-19.9,0-36,16.1-36,35.9s16.1,35.9,35.9,35.9s35.9-16.1,35.9-35.9c0-3.5-0.5-6.9-1.5-10.2l21.9-14.2l17.9-11.6l35.1-22.6
		l21.1-13.6l50.8-32.8c6.7,7.5,16.4,12.1,26.8,12.1c6.1,0,11.9-1.5,17.1-4.3l0,0l21.4,24.8c-1,2.9-1.5,6-1.5,9.1
		c0,15.7,12.8,28.5,28.5,28.5s28.5-12.8,28.5-28.5l4.8-3.1l21.1-13.6l47.2-30.5l19.9-12.9l9.1-5.9c6.5,5.7,14.8,8.9,23.6,8.9
		c19.8,0,35.9-16.1,35.9-35.9S488.9,114.5,469.1,114.5z M40.9,323.8c-9.3,0-16.9-7.6-16.9-16.9S31.6,290,40.9,290
		c5.9,0,11.3,3,14.4,8.1c1.6,2.7,2.5,5.7,2.5,8.8C57.9,316.2,50.3,323.8,40.9,323.8z M261.1,190c-3.2,3.1-7.4,4.9-11.9,4.9
		c-6.7,0-12.7-3.9-15.4-10c-1-2.2-1.5-4.5-1.5-6.9c0-9.3,7.6-16.9,16.9-16.9s16.9,7.6,16.9,16.9C266.1,182.5,264.3,186.8,261.1,190z
		 M314.7,253c-5.2,0-9.5-4.3-9.5-9.5c0-1.9,0.6-3.7,1.6-5.3c1.8-2.6,4.7-4.2,7.9-4.2c4.3,0,8.1,2.9,9.2,7.1c0.2,0.8,0.3,1.6,0.3,2.4
		C324.2,248.7,320,253,314.7,253z M469.1,167.4c-5.7,0-10.9-2.8-14.1-7.5c-1.9-2.8-2.8-6-2.8-9.4c0-9.3,7.6-16.9,16.9-16.9
		s16.9,7.6,16.9,16.9S478.4,167.4,469.1,167.4z"/>
</g>
</svg>
