<?xml version="1.0" encoding="utf-8"?>
<!-- Generator: Adobe Illustrator 21.0.0, SVG Export Plug-In . SVG Version: 6.00 Build 0)  -->
<svg version="1.1" id="Layer_1" xmlns="http://www.w3.org/2000/svg" xmlns:xlink="http://www.w3.org/1999/xlink" x="0px" y="0px"
	 viewBox="0 0 60 60" style="enable-background:new 0 0 60 60;" xml:space="preserve">
<style type="text/css">
	.st0{fill:rgb(158,133,177);}
</style>
<g>
	<g>
		<path class="st0" d="M33.8,43.6h-5.5V38c0-7.3,5.9-13.2,13.2-13.2H46c0.6,0,1,0.5,1,1v4.5C47,37.7,41.1,43.6,33.8,43.6z
			 M32.3,39.6h1.5c5.1,0,9.2-4.1,9.2-9.2v-1.5h-1.5c-5.1,0-9.2,4.1-9.2,9.2V39.6z"/>
	</g>
	<g>
		<path class="st0" d="M32.3,43.6h-5.5c-7.3,0-13.2-5.9-13.2-13.2v-4.5c0-0.6,0.5-1,1-1h4.5c7.3,0,13.2,5.9,13.2,13.2V43.6z
			 M17.5,28.8v1.5c0,5.1,4.1,9.2,9.2,9.2h1.5V38c0-5.1-4.1-9.2-9.2-9.2H17.5z"/>
	</g>
	<g>
		<path class="st0" d="M30.3,30.4l-3.9-3.9c-5.1-5.1-5.1-13.5,0-18.6l3.2-3.2c0.4-0.4,1.1-0.4,1.5,0l3.2,3.2
			c5.1,5.1,5.1,13.5,0,18.6L30.3,30.4z M30.3,9.6l-1.1,1.1c-3.6,3.6-3.6,9.4,0,13l1.1,1.1l1.1-1.1c3.6-3.6,3.6-9.4,0-13L30.3,9.6z"
			/>
	</g>
	<g>
		<rect x="28.3" y="24.3" class="st0" width="4" height="30.5"/>
	</g>
	<g>
		<path class="st0" d="M45.3,21.6L45.3,21.6c-1.1,0-2-0.9-2-2V6.9c0-1.1,0.9-2,2-2l0,0c1.1,0,2,0.9,2,2v12.8
			C47.3,20.7,46.4,21.6,45.3,21.6z"/>
	</g>
	<g>
		<path class="st0" d="M15.2,21.7L15.2,21.7c-1.1,0-2-0.9-2-2v-5.9c0-1.1,0.9-2,2-2l0,0c1.1,0,2,0.9,2,2v5.9
			C17.2,20.8,16.3,21.7,15.2,21.7z"/>
	</g>
</g>
</svg>
