<?xml version="1.0" encoding="utf-8"?>
<!-- Generator: Adobe Illustrator 21.0.0, SVG Export Plug-In . SVG Version: 6.00 Build 0)  -->
<svg version="1.1" id="Layer_1" xmlns="http://www.w3.org/2000/svg" xmlns:xlink="http://www.w3.org/1999/xlink" x="0px" y="0px"
	 viewBox="0 0 60 60" style="enable-background:new 0 0 60 60;" xml:space="preserve">
<style type="text/css">
	.st0{fill:rgb(179,168,137);}
</style>
<g>
	<path class="st0" d="M36.4,35.8H24.3h-1.6c-1.3,0-2.4,1.1-2.4,2.4v1.6v12.7h4V39.8h12.1v12.7h4V39.8v-1.6c0-1.3-1.1-2.4-2.4-2.4
		H36.4z"/>
	<path class="st0" d="M57.5,26L46.1,13.4c0,0,0,0,0,0l-1.6-1.7L31.7,4.4C30.9,4,30,4,29.2,4.4L16.3,12l-1.4,1.6c0,0-0.1,0.1-0.1,0.1
		L3.1,26c-0.7,0.8-0.7,2.1,0.1,2.8C4,29.5,5,29.5,5.7,29v20.9c0,2.8,2.3,5.1,5.1,5.1h39.3c2.8,0,5.1-2.3,5.1-5.1V29.2
		c0.7,0.4,1.6,0.3,2.2-0.3l0,0C58.2,28.1,58.3,26.9,57.5,26z M51.2,49.9c0,0.6-0.5,1.1-1.1,1.1H10.8c-0.6,0-1.1-0.5-1.1-1.1V25
		l9.1-9.8l11.4-6.7c0.2-0.1,0.3-0.1,0.5,0L42,14.8l1.1,1.2c0,0,0,0,0,0l4.2,4.7l3.8,4.2V49.9z"/>
	<path class="st0" d="M30.3,31.4c-4.1,0-7.5-3.3-7.5-7.5c0-4.1,3.3-7.5,7.5-7.5s7.5,3.3,7.5,7.5C37.8,28.1,34.5,31.4,30.3,31.4z
		 M30.3,20.5c-1.9,0-3.5,1.6-3.5,3.5c0,1.9,1.6,3.5,3.5,3.5c1.9,0,3.5-1.6,3.5-3.5C33.8,22,32.2,20.5,30.3,20.5z"/>
</g>
</svg>
