<?xml version="1.0" encoding="utf-8"?>
<!-- Generator: Adobe Illustrator 21.0.0, SVG Export Plug-In . SVG Version: 6.00 Build 0)  -->
<svg version="1.1" id="Layer_1" xmlns="http://www.w3.org/2000/svg" xmlns:xlink="http://www.w3.org/1999/xlink" x="0px" y="0px"
	 viewBox="0 0 60 60" style="enable-background:new 0 0 60 60;" xml:space="preserve">
<style type="text/css">
	.st0{fill:rgb(132,188,82);}
</style>
<g>
	<g>
		<path class="st0" d="M30.1,51.1c-9,0-16.3-7.3-16.3-16.3V11.6c0-2,1.6-3.5,3.5-3.5h25.5c2,0,3.5,1.6,3.5,3.5v23.3
			C46.4,43.8,39,51.1,30.1,51.1z M17.7,12v22.8c0,6.8,5.5,12.3,12.3,12.3h0c6.8,0,12.3-5.5,12.3-12.3V12H17.7z"/>
	</g>
	<g>
		<path class="st0" d="M53.1,28.5h-47c-1.1,0-2-0.9-2-2l0,0c0-1.1,0.9-2,2-2h47c1.1,0,2,0.9,2,2l0,0C55.1,27.6,54.2,28.5,53.1,28.5z
			"/>
	</g>
	<g>
		<g>
			<path class="st0" d="M31.2,41.9c-0.7,0.7-1.8,0.7-2.6,0l0,0c-1.5-1.5-3.7-1.7-5.4-0.8c-0.7,0.4-1.6,0.3-2.1-0.3l0,0
				c-0.9-0.9-0.6-2.3,0.4-2.9c2.6-1.4,5.7-1.3,8.2,0.3c0.1,0.1,0.2,0.1,0.3,0c2.5-1.6,5.6-1.7,8.2-0.3c1.1,0.6,1.3,2,0.4,2.9l0,0
				c-0.6,0.6-1.4,0.7-2.1,0.3C34.8,40.2,32.6,40.4,31.2,41.9L31.2,41.9z"/>
		</g>
	</g>
</g>
</svg>
