<?xml version="1.0" encoding="utf-8"?>
<!-- Generator: Adobe Illustrator 21.0.0, SVG Export Plug-In . SVG Version: 6.00 Build 0)  -->
<svg version="1.1" id="Layer_1" xmlns="http://www.w3.org/2000/svg" xmlns:xlink="http://www.w3.org/1999/xlink" x="0px" y="0px"
	 viewBox="0 0 55 55" style="enable-background:new 0 0 55 55;" xml:space="preserve">
<style type="text/css">
	.st0{fill:none;stroke:rgb(143,105,107);stroke-width:3;stroke-miterlimit:10;}
</style>
<g>
	<path class="st0" d="M48.3,34.6L28.1,45.8c-0.2,0.1-0.4,0.2-0.6,0.2s-0.4-0.1-0.6-0.2L6.8,34.6c-0.8-0.5-0.8-1.6,0-2.1l3.5-2
		l16.7,9.3c0.2,0.1,0.4,0.2,0.6,0.2s0.4-0.1,0.6-0.2l16.7-9.3l3.5,2C49.1,32.9,49.1,34.1,48.3,34.6z"/>
	<path class="st0" d="M48.3,28.6l-3.5,2l-16.7,9.3c-0.2,0.1-0.4,0.2-0.6,0.2s-0.4-0.1-0.6-0.2l-16.7-9.3l-3.5-2
		c-0.8-0.5-0.8-1.6,0-2.1l3.5-2l5.4,3l11.3,6.3c0.2,0.1,0.4,0.2,0.6,0.2s0.4-0.1,0.6-0.2l11.3-6.3l5.4-3l3.5,2
		C49.1,26.9,49.1,28.1,48.3,28.6z"/>
	<path class="st0" d="M48.3,22.6l-3.5,2l-5.4,3l-11.3,6.3c-0.2,0.1-0.4,0.2-0.6,0.2s-0.4-0.1-0.6-0.2l-11.3-6.3l-5.4-3l-3.5-2
		c-0.8-0.5-0.8-1.6,0-2.1L26.9,9.2C27.1,9.1,27.3,9,27.5,9s0.4,0.1,0.6,0.2l20.2,11.3C49.1,20.9,49.1,22.1,48.3,22.6z"/>
</g>
</svg>
